# xmcd CD database file
#
# Track frame offsets:
#	150
#	20492
#	42207
#
# Disc length: 795 seconds
#
# Revision: 3
# Processed by: cddbd v1.5PL3 Copyright (c) Steve Scherf et al.
# Submitted via: CDex 1.51
#
DISCID=1b031903
DTITLE=VOLCANO - DIE HARD
DYEAR=2000
DGENRE=Heavy Metal
TTITLE0=CRY
TTITLE1=TRUST
TTITLE2=4148
EXTD=YEAR: 2000
EXTT0=
EXTT1=
EXTT2=
PLAYORDER=
